<svg width="1012" height="223" viewBox="0 0 1012 223" fill="none" xmlns="http://www.w3.org/2000/svg">
<path d="M994.743 106.019H980.182C978.9 90.544 974.275 82.8066 966.308 82.8066C961.134 82.8066 957.242 84.4336 954.632 87.6877C952.022 90.8694 950.717 95.642 950.717 102.005C950.717 108.658 957.837 117.986 972.077 129.99C983.662 139.825 990.324 147.996 992.064 154.504C993.85 160.94 994.743 167.809 994.743 175.113C994.743 187.984 991.858 198.976 986.089 208.087C980.365 217.126 973.497 221.646 965.484 221.646H950.785C931.279 221.646 921.526 206.243 921.526 175.438H936.225C937.369 190.841 941.948 198.542 949.961 198.542C955.135 198.542 959.027 196.915 961.637 193.661C964.247 190.407 965.552 185.598 965.552 179.235C965.552 172.727 958.455 163.398 944.26 151.25C932.63 141.488 925.922 133.353 924.136 126.845C922.396 120.337 921.526 113.467 921.526 106.236C921.526 93.2918 924.411 82.3004 930.18 73.2614C935.95 64.1501 942.818 59.5944 950.785 59.5944H965.484C983.799 59.5944 993.552 75.0692 994.743 106.019Z" fill="#FFF0DD"/>
<path d="M863.077 13.3871H892.336V175.438C892.336 187.948 889.452 198.795 883.682 207.979C877.959 217.09 871.09 221.646 863.077 221.646H833.681C825.668 221.646 818.777 217.126 813.007 208.087C807.284 198.976 804.422 188.093 804.422 175.438V13.3871H833.681V175.438C833.681 181.657 835.1 187.044 837.939 191.6C840.824 196.156 844.304 198.434 848.379 198.434C852.454 198.434 855.911 196.156 858.75 191.6C861.635 187.044 863.077 181.657 863.077 175.438V13.3871Z" fill="#FFF0DD"/>
<path d="M688.278 13.3871H717.537V59.5944H732.236V82.8066H717.537V175.438C717.537 182.886 719.094 188.599 722.208 192.576C725.321 196.481 728.206 198.434 730.862 198.434H732.236V221.646H717.537C709.479 221.646 702.587 217.126 696.864 208.087C691.14 198.976 688.278 188.093 688.278 175.438V82.8066H673.58V59.5944H688.278V13.3871Z" fill="#FFF0DD"/>
<path d="M644.115 106.019H629.554C628.41 90.544 623.51 82.8066 614.856 82.8066C610.827 82.8066 607.37 85.0844 604.485 89.6401C601.6 94.1957 600.158 99.6553 600.158 106.019V175.438C600.158 181.657 601.577 187.044 604.416 191.6C607.301 196.156 610.781 198.434 614.856 198.434C623.51 198.434 628.41 190.768 629.554 175.438H644.115C642.925 206.243 633.172 221.646 614.856 221.646H600.158C592.145 221.646 585.254 217.126 579.484 208.087C573.761 198.976 570.899 188.093 570.899 175.438V106.019C570.899 93.2195 573.784 82.3004 579.553 73.2614C585.322 64.1501 592.191 59.5944 600.158 59.5944H614.856C633.263 59.5944 643.016 75.0692 644.115 106.019Z" fill="#FFF0DD"/>
<path d="M512.449 129.014V106.019C512.449 99.6553 510.984 94.1957 508.054 89.6401C505.169 85.0844 501.735 82.8066 497.751 82.8066H483.053C474.399 82.8066 469.545 90.544 468.492 106.019H453.794C456.038 75.0692 465.791 59.5944 483.053 59.5944H512.449C520.462 59.5944 527.331 64.1862 533.054 73.3699C538.824 82.4812 541.708 93.3641 541.708 106.019V221.646H512.449V198.434C511.305 213.908 506.405 221.646 497.751 221.646H483.053C475.04 221.646 468.149 217.126 462.379 208.087C456.656 198.976 453.794 188.093 453.794 175.438V175.221C453.794 162.567 456.679 151.72 462.448 142.681C468.217 133.57 475.086 129.014 483.053 129.014H512.449ZM512.449 152.226H497.751C493.722 152.226 490.265 154.504 487.38 159.06C484.495 163.543 483.053 168.93 483.053 175.221V175.438C483.053 181.657 484.472 187.044 487.311 191.6C490.196 196.156 493.676 198.434 497.751 198.434C501.826 198.434 505.283 196.156 508.122 191.6C511.007 187.044 512.449 181.657 512.449 175.438V152.226Z" fill="#FFF0DD"/>
<path d="M380.578 13.3871H409.837V59.5944H424.535V82.8066H409.837V175.438C409.837 182.886 411.393 188.599 414.507 192.576C417.621 196.481 420.505 198.434 423.161 198.434H424.535V221.646H409.837C401.778 221.646 394.887 217.126 389.163 208.087C383.439 198.976 380.578 188.093 380.578 175.438V82.8066H365.879V59.5944H380.578V13.3871Z" fill="#FFF0DD"/>
<path d="M248.774 221.646V59.5944H278.033V82.8066C278.629 74.9969 280.14 69.1758 282.567 65.3432C285.039 61.5107 288.428 59.5944 292.732 59.5944H307.43C315.443 59.5944 322.311 64.1862 328.035 73.3699C333.804 82.4812 336.689 93.3641 336.689 106.019V221.646H307.43V106.019C307.43 99.6553 305.965 94.1957 303.034 89.6401C300.149 85.0844 296.715 82.8066 292.732 82.8066C288.702 82.8066 285.245 85.0844 282.36 89.6401C279.476 94.1957 278.033 99.6553 278.033 106.019V221.646H248.774Z" fill="#FFF0DD"/>
<path d="M160.928 59.5944H190.325C198.338 59.5944 205.206 64.1862 210.93 73.3699C216.699 82.4812 219.584 93.3641 219.584 106.019V175.438C219.584 187.948 216.699 198.795 210.93 207.979C205.206 217.09 198.338 221.646 190.325 221.646H160.928C152.915 221.646 146.024 217.126 140.255 208.087C134.531 198.976 131.669 188.093 131.669 175.438V106.019C131.669 93.2195 134.554 82.3004 140.324 73.2614C146.093 64.1501 152.961 59.5944 160.928 59.5944ZM160.928 106.019V175.438C160.928 181.657 162.348 187.044 165.187 191.6C168.072 196.156 171.551 198.434 175.627 198.434C179.702 198.434 183.159 196.156 185.998 191.6C188.883 187.044 190.325 181.657 190.325 175.438V106.019C190.325 99.6553 188.86 94.1957 185.929 89.6401C183.044 85.0844 179.61 82.8066 175.627 82.8066C171.597 82.8066 168.14 85.0844 165.256 89.6401C162.371 94.1957 160.928 99.6553 160.928 106.019Z" fill="#FFF0DD"/>
<path d="M102.479 175.438C101.197 206.243 91.4444 221.646 73.2204 221.646H43.824C35.8109 221.646 28.9197 217.126 23.1503 208.087C17.4267 198.976 14.5649 188.093 14.5649 175.438V59.5944C14.5649 47.1568 17.381 36.3461 23.013 27.1625C28.6908 17.9789 35.6278 13.3871 43.824 13.3871H73.2204C91.6275 13.3871 101.381 28.7895 102.479 59.5944H87.7812C86.6365 44.2643 81.7829 36.5992 73.2204 36.5992H58.5222C54.4928 36.5992 51.0357 38.877 48.151 43.4327C45.2663 47.916 43.824 53.3033 43.824 59.5944V175.438C43.824 181.657 45.2434 187.044 48.0824 191.6C50.967 196.156 54.447 198.434 58.5222 198.434H73.2204C81.8287 198.434 86.6823 190.768 87.7812 175.438H102.479Z" fill="#FFF0DD"/>
<path d="M980.745 49.4557C990.358 49.4558 997.747 53.6486 1002.86 61.9909C1007.95 70.2966 1010.78 82.6948 1011.39 99.1227L1011.41 99.6413H995.427L995.39 99.1813C994.732 91.0112 993.218 84.951 990.891 80.9479C988.582 76.9748 985.489 75.0485 981.593 75.0485C976.379 75.0486 972.531 76.7279 969.958 80.027L969.955 80.0319C967.366 83.2766 966.03 88.2006 966.03 94.8893C966.03 98.2519 967.787 102.377 971.433 107.29C974.843 111.884 979.866 117.114 986.514 122.979L987.866 124.161L987.867 124.162C993.849 129.384 998.573 134.175 1002.03 138.536C1005.48 142.892 1007.69 146.843 1008.61 150.384H1008.61C1010.47 157.248 1011.39 164.569 1011.39 172.345C1011.39 186.056 1008.4 197.796 1002.4 207.543C996.449 217.207 989.234 222.146 980.745 222.146H965.6C955.388 222.146 947.685 217.984 942.565 209.669C937.469 201.393 934.955 189.043 934.955 172.69V172.19H951.064L951.097 172.654C951.685 180.786 953.151 186.816 955.454 190.799C957.738 194.75 960.83 196.668 964.751 196.668C969.966 196.668 973.814 194.988 976.387 191.689C978.979 188.366 980.315 183.4 980.315 176.713C980.315 173.428 978.566 169.34 974.929 164.425C971.303 159.524 965.847 153.862 958.547 147.438V147.437C952.544 142.255 947.797 137.494 944.317 133.154C940.839 128.817 938.606 124.876 937.661 121.335L937.66 121.332C935.856 114.393 934.955 107.071 934.955 99.3708C934.955 85.5843 937.943 73.8429 943.946 64.1716C949.942 54.4343 957.156 49.4559 965.6 49.4557H980.745Z" stroke="#FFF0DD"/>
<path d="M845.445 0.5V172.69C845.445 179.202 846.89 184.815 849.759 189.551C852.676 194.288 856.123 196.553 860.09 196.553C864.055 196.553 867.478 194.289 870.348 189.554L870.35 189.551C873.266 184.815 874.733 179.202 874.733 172.69V0.5H905.879V172.69C905.879 186.021 902.889 197.606 896.89 207.427C890.939 217.167 883.725 222.145 875.233 222.146H844.945C836.456 222.145 829.219 217.208 823.221 207.545L823.219 207.541C817.266 197.796 814.3 186.172 814.3 172.69V0.5H845.445Z" stroke="#FFF0DD"/>
<path d="M725.782 0.5V49.4561H740.926V75.0488H725.782V172.69C725.782 180.523 727.376 186.451 730.492 190.544H730.491C733.683 194.66 736.525 196.553 739.011 196.553H740.926V222.146H725.282C716.746 222.146 709.508 217.209 703.556 207.543L703.555 207.541C697.602 197.796 694.636 186.172 694.636 172.69V75.0488H679.492V49.4561H694.636V0.5H725.782Z" stroke="#FFF0DD"/>
<path d="M619.488 49.4557C629.148 49.4558 636.561 53.6476 641.675 61.9909C646.766 70.2972 649.567 82.6959 650.134 99.1237L650.151 99.6413H634.166L634.133 99.1774C633.545 91.0106 631.997 84.9566 629.535 80.9587C627.094 76.9938 623.757 75.0486 619.488 75.0485C615.571 75.0485 612.147 77.3117 609.229 82.0505C606.313 86.7844 604.844 92.4742 604.844 99.1413V172.69C604.844 179.201 606.288 184.815 609.157 189.55C612.074 194.287 615.522 196.552 619.488 196.552C623.759 196.552 627.096 194.624 629.536 190.698C631.997 186.739 633.545 180.744 634.133 172.654L634.167 172.19H650.153L650.134 172.709C649.519 189.06 646.694 201.401 641.604 209.669C636.49 217.973 629.1 222.146 619.488 222.146H604.344C595.855 222.146 588.617 217.208 582.619 207.545L582.617 207.542C576.664 197.797 573.698 186.172 573.698 172.69V99.1413C573.698 85.5067 576.687 73.8421 582.689 64.1716C588.686 54.4343 595.9 49.4559 604.344 49.4557H619.488Z" stroke="#FFF0DD"/>
<path d="M513.977 49.4557C522.47 49.4558 529.683 54.4742 535.632 64.2888L536.186 65.2077C541.817 74.7623 544.623 86.0799 544.623 99.1413V222.146H513.477V205.083C512.646 209.483 511.402 213.047 509.732 215.759C507.126 219.992 503.481 222.146 498.833 222.146H483.689C475.2 222.146 467.963 217.208 461.964 207.545L461.962 207.542C456.009 197.797 453.043 186.172 453.043 172.69V172.46C453.044 158.977 456.033 147.39 462.035 137.72C468.031 127.983 475.245 123.005 483.689 123.005H513.477V99.1413C513.477 92.4757 511.985 86.7869 509.024 82.0534L509.022 82.0505C506.102 77.3094 502.702 75.0486 498.833 75.0485H483.689C479.421 75.0487 476.096 76.9932 473.678 80.9567C471.24 84.9539 469.727 91.0076 469.186 99.1745L469.155 99.6413H453.007L453.044 99.1061C454.202 82.6804 457.301 70.2894 462.387 61.9909C467.493 53.6596 474.606 49.4559 483.689 49.4557H513.977ZM498.833 148.597C494.916 148.597 491.492 150.86 488.574 155.599L488.572 155.602C485.658 160.259 484.189 165.87 484.189 172.46V172.69C484.189 179.201 485.634 184.815 488.502 189.55C491.419 194.287 494.867 196.552 498.833 196.552C502.799 196.552 506.222 194.288 509.091 189.553L509.093 189.55C512.009 184.815 513.477 179.201 513.477 172.69V148.597H498.833Z" stroke="#FFF0DD"/>
<path d="M408.754 0.5V49.4561H423.897V75.0488H408.754V172.69C408.754 180.523 410.348 186.451 413.464 190.544H413.463C416.655 194.66 419.496 196.553 421.982 196.553H423.897V222.146H408.254C399.718 222.146 392.479 217.209 386.527 207.543L386.526 207.541C380.573 197.796 377.607 186.172 377.607 172.69V75.0488H362.464V49.4561H377.607V0.5H408.754Z" stroke="#FFF0DD"/>
<path d="M272.955 49.4557V66.5466C273.791 62.0826 275.034 58.4892 276.7 55.7839L276.702 55.7809C279.332 51.5888 282.976 49.4557 287.599 49.4557H302.743C311.235 49.4558 318.449 54.4742 324.398 64.2888L324.952 65.2077C330.583 74.7624 333.388 86.0799 333.388 99.1413V222.146H302.243V99.1413C302.243 92.4757 300.751 86.7869 297.79 82.0534L297.788 82.0505C294.868 77.3094 291.467 75.0486 287.599 75.0485C283.682 75.0485 280.258 77.3116 277.339 82.0505C274.424 86.7844 272.955 92.4742 272.955 99.1413V222.146H241.809V49.4557H272.955Z" stroke="#FFF0DD"/>
<path d="M182.088 49.4557C190.581 49.4558 197.794 54.4742 203.743 64.2888L204.297 65.2077C209.928 74.7624 212.733 86.0799 212.733 99.1413V172.69C212.733 186.021 209.744 197.606 203.744 207.426C197.794 217.167 190.58 222.146 182.088 222.146H151.8C143.311 222.146 136.073 217.208 130.075 207.545L130.073 207.542C124.12 197.797 121.154 186.172 121.154 172.69V99.1413C121.154 85.5067 124.143 73.8421 130.146 64.1716C136.142 54.4343 143.356 49.4559 151.8 49.4557H182.088ZM166.944 75.0485C163.027 75.0485 159.603 77.3116 156.685 82.0505C153.769 86.7844 152.3 92.4742 152.3 99.1413V172.69C152.3 179.201 153.744 184.815 156.613 189.55C159.53 194.287 162.978 196.552 166.944 196.552C170.91 196.552 174.333 194.288 177.202 189.553L177.204 189.55C180.12 184.815 181.588 179.201 181.588 172.69V99.1413C181.588 92.4757 180.096 86.7869 177.135 82.0534L177.133 82.0505C174.213 77.3094 170.812 75.0486 166.944 75.0485Z" stroke="#FFF0DD"/>
<path d="M61.4336 0.5L62.332 0.512695C71.5526 0.765137 78.6647 4.93103 83.6191 12.9766C88.7105 21.2448 91.5118 33.5868 92.0791 49.9385L92.0967 50.4561H75.9707L75.9375 49.9922C75.35 41.902 73.8133 35.905 71.375 31.9453C68.9568 28.0184 65.6546 26.0928 61.4336 26.0928H46.29C42.3727 26.0928 38.9484 28.3559 36.0303 33.0947L36.0283 33.0977C33.1147 37.7542 31.6455 43.3665 31.6455 49.9561V172.69C31.6456 179.202 33.0902 184.815 35.959 189.551C38.8758 194.288 42.3235 196.553 46.29 196.553H61.4336C65.6793 196.553 68.9926 194.626 71.4102 190.7C73.8481 186.741 75.3726 180.745 75.9365 172.655L75.9697 172.19H92.1006L92.0791 172.71C91.4173 189.061 88.5691 201.402 83.4785 209.669C78.3655 217.972 70.9997 222.145 61.4336 222.146H31.1455C22.6567 222.145 15.4191 217.208 9.4209 207.545L9.41895 207.541C3.46585 197.796 0.500069 186.172 0.5 172.69V49.9561C0.5 36.7035 3.4185 25.158 9.27441 15.3389L9.27539 15.3369C15.1805 5.51524 22.4669 0.500183 31.1455 0.5H61.4336Z" stroke="#FFF0DD"/>
</svg>
