<svg width="32" height="42" viewBox="0 0 32 42" fill="none" xmlns="http://www.w3.org/2000/svg">
<path d="M16.0043 19.527C14.4884 19.527 13.0345 18.9856 11.9626 18.0219C10.8907 17.0582 10.2885 15.7512 10.2885 14.3883C10.2885 13.0254 10.8907 11.7184 11.9626 10.7547C13.0345 9.79101 14.4884 9.24962 16.0043 9.24962C17.5203 9.24962 18.9741 9.79101 20.046 10.7547C21.1179 11.7184 21.7201 13.0254 21.7201 14.3883C21.7201 15.0631 21.5723 15.7313 21.2851 16.3548C20.9978 16.9782 20.5768 17.5447 20.046 18.0219C19.5153 18.4991 18.8852 18.8776 18.1917 19.1358C17.4982 19.3941 16.7549 19.527 16.0043 19.527ZM16.0043 0C11.7597 0 7.68895 1.51591 4.68756 4.21423C1.68616 6.91256 0 10.5723 0 14.3883C0 25.1795 16.0043 41.1094 16.0043 41.1094C16.0043 41.1094 32.0086 25.1795 32.0086 14.3883C32.0086 10.5723 30.3225 6.91256 27.3211 4.21423C24.3197 1.51591 20.2489 0 16.0043 0Z" fill="#B0464A"/>
</svg>
