<svg width="39" height="39" viewBox="0 0 39 39" fill="none" xmlns="http://www.w3.org/2000/svg">
<path d="M7.71734 16.6072C10.7872 22.6404 15.7332 27.565 21.7663 30.6562L26.4564 25.9661C27.032 25.3905 27.8848 25.1986 28.6309 25.4544C31.0186 26.2432 33.5982 26.6696 36.2417 26.6696C37.4142 26.6696 38.3735 27.6289 38.3735 28.8015V36.2417C38.3735 37.4142 37.4142 38.3735 36.2417 38.3735C16.2235 38.3735 0 22.1501 0 2.13186C0 0.959338 0.959338 0 2.13186 0H9.59338C10.7659 0 11.7252 0.959338 11.7252 2.13186C11.7252 4.79669 12.1516 7.35493 12.9404 9.74261C13.1749 10.4888 13.0044 11.3202 12.4074 11.9171L7.71734 16.6072Z" fill="#B0464A"/>
</svg>
